<svg width="16" height="16" viewBox="0 0 16 16" fill="none" xmlns="http://www.w3.org/2000/svg">
<path d="M14.375 13.0484L13.3334 3.24845C13.3334 2.63233 12.8561 2.1333 12.2668 2.1333H8.0001H3.73343C3.1441 2.1333 2.66676 2.63233 2.66676 3.24845L1.62516 13.0484C1.6097 13.1248 1.6001 13.2034 1.6001 13.2848C1.6001 13.9009 2.07743 14.4 2.66676 14.4H8.0001H13.3334C13.9228 14.4 14.4001 13.9009 14.4001 13.2848C14.4001 13.2034 14.3905 13.1248 14.375 13.0484ZM10.6668 4.86988V5.47876C10.6668 7.01599 9.4705 8.26663 8.0001 8.26663C6.5297 8.26663 5.33343 7.01599 5.33343 5.47876V4.86988C5.02356 4.75502 4.8001 4.44836 4.8001 4.08482C4.8001 3.62314 5.1585 3.24845 5.6001 3.24845C6.0417 3.24845 6.4001 3.62314 6.4001 4.08482V5.47876C6.4001 6.40099 7.11796 7.15148 8.0001 7.15148C8.88223 7.15148 9.6001 6.40099 9.6001 5.47876V4.08482C9.6001 3.62314 9.9585 3.24845 10.4001 3.24845C10.8417 3.24845 11.2001 3.62314 11.2001 4.08482C11.2001 4.44836 10.9766 4.75502 10.6668 4.86988Z" fill="#F9F9F9"/>
</svg>
