<svg width="85" height="44" viewBox="0 0 85 44" fill="none" xmlns="http://www.w3.org/2000/svg">
<path d="M10.7174 5.27697C10.2173 5.27697 9.82059 5.14783 9.52776 4.88956C9.23492 4.63128 9.08851 4.28689 9.08851 3.85644C9.08851 3.22919 9.29575 2.71877 9.71078 2.32522C10.1258 1.93167 10.6566 1.73486 11.3031 1.73486C11.8032 1.73486 12.1999 1.87013 12.4927 2.14073C12.7979 2.39901 12.9503 2.7434 12.9503 3.17385C12.9503 3.80109 12.7366 4.31152 12.3097 4.70507C11.8947 5.08636 11.3639 5.27697 10.7174 5.27697ZM6.58111 5.27697C6.08086 5.27697 5.6843 5.14783 5.39146 4.88956C5.09863 4.63128 4.95221 4.28689 4.95221 3.85644C4.95221 3.22919 5.15962 2.71877 5.57449 2.32522C5.98936 1.93167 6.52012 1.73486 7.16678 1.73486C7.66702 1.73486 8.06359 1.87013 8.35642 2.14073C8.66164 2.39901 8.81398 2.7434 8.81398 3.17385C8.81398 3.80109 8.60027 4.31152 8.1734 4.70507C7.75853 5.08636 7.22777 5.27697 6.58111 5.27697ZM9.36304 15.5897H15.4943L15.0184 18.5599H7.93547L9.36304 15.5897ZM6.92885 18.5599C5.20844 18.5599 3.848 18.1356 2.84746 17.2869C1.84692 16.4383 1.34668 15.233 1.34668 13.671C1.34668 12.3427 1.70664 11.1682 2.42651 10.1474C3.14638 9.12658 4.09809 8.33942 5.28165 7.78597C6.47738 7.23251 7.76467 6.95579 9.14341 6.95579C10.2782 6.95579 11.2116 7.13414 11.9437 7.49079C12.6881 7.84745 13.2124 8.26563 13.5176 8.74529L12.2182 16.2907L10.7174 18.5599H6.92885ZM9.8755 8.74529L10.0219 10.2212C10.0343 10.0859 9.96702 10.0059 9.8206 9.98134C9.68656 9.94444 9.46047 9.92599 9.14341 9.92599C8.30151 9.92599 7.56334 10.0797 6.92885 10.3872C6.30658 10.6947 5.8185 11.1436 5.46467 11.7339C5.12302 12.3243 4.95221 13.0253 4.95221 13.8371C4.95221 14.5135 5.09255 14.9748 5.37316 15.2207C5.666 15.4667 6.18454 15.5897 6.92885 15.5897H9.14341L8.66756 15.7926L9.8755 8.74529ZM15.4943 15.5897C15.7015 15.5897 15.8296 15.7188 15.8786 15.9771C15.9276 16.2231 15.9152 16.592 15.842 17.084C15.7688 17.5637 15.6649 17.9265 15.5309 18.1725C15.3968 18.4308 15.2257 18.5599 15.0184 18.5599L15.4943 15.5897ZM15.5007 15.5897H25.5486L25.0728 18.5599H15.0432L15.5007 15.5897ZM25.5486 15.5897C25.7559 15.5897 25.884 15.7188 25.933 15.9771C25.982 16.2231 25.9696 16.592 25.8964 17.084C25.8232 17.5637 25.7193 17.9265 25.5852 18.1725C25.4512 18.4308 25.28 18.5599 25.0728 18.5599L25.5486 15.5897ZM15.0432 18.5599C14.8359 18.5599 14.7078 18.4308 14.6588 18.1725C14.6099 17.9265 14.6222 17.5575 14.6954 17.0656C14.7686 16.5859 14.8725 16.2231 15.0066 15.9771C15.1406 15.7188 15.3118 15.5897 15.519 15.5897L15.0432 18.5599ZM25.5454 15.5897H35.5933L35.1175 18.5599H25.0879L25.5454 15.5897ZM35.5933 15.5897C35.8006 15.5897 35.9287 15.7188 35.9777 15.9771C36.0266 16.2231 36.0143 16.592 35.9411 17.084C35.8678 17.5637 35.764 17.9265 35.6299 18.1725C35.4959 18.4308 35.3247 18.5599 35.1175 18.5599L35.5933 15.5897ZM25.0879 18.5599C24.8806 18.5599 24.7525 18.4308 24.7035 18.1725C24.6545 17.9265 24.6669 17.5575 24.7401 17.0656C24.8133 16.5859 24.9172 16.2231 25.0512 15.9771C25.1853 15.7188 25.3565 15.5897 25.5637 15.5897L25.0879 18.5599ZM42.8378 18.5599C42.2402 18.5599 41.801 18.4062 41.52 18.0987C41.2519 17.7912 41.1173 17.3115 41.1173 16.6597L42.4534 17.6006H39.9826L42.1972 12.7855L42.1789 12.9884C42.1423 13.2221 42.1121 13.4435 42.0874 13.6526C42.0755 13.8617 42.0691 14.0523 42.0691 14.2245C42.0691 14.6549 42.167 14.9932 42.3619 15.2392C42.5697 15.4729 42.8744 15.5897 43.277 15.5897H45.4916L45.0157 18.5599H42.8378ZM35.6084 15.5897H39.3786L38.1524 15.9771C38.1406 15.5467 38.2256 14.7411 38.4086 13.5603C38.604 12.3796 38.8786 10.7992 39.2322 8.81909C39.3302 8.27795 39.4217 7.77365 39.5068 7.30631C39.5923 6.82665 39.6656 6.38388 39.7264 5.97802L40.312 7.61993L38.5916 5.14783C39.1655 4.72965 39.7447 4.40376 40.3304 4.17006C40.916 3.9241 41.5017 3.80109 42.0874 3.80109C42.6122 3.80109 42.9906 3.90565 43.2221 4.11472C43.4541 4.32378 43.5698 4.65586 43.5698 5.11094C43.5698 5.41843 43.5273 5.79966 43.4417 6.25474C43.3567 6.70983 43.2286 7.32476 43.0574 8.09959C42.7161 9.62469 42.4475 11.0268 42.2521 12.3059C42.0572 13.5727 41.9592 14.901 41.9592 16.2907L40.5134 18.5599H35.1325L35.6084 15.5897ZM35.1325 18.5599C34.9253 18.5599 34.7972 18.4308 34.7482 18.1725C34.6997 17.9265 34.7116 17.5575 34.7848 17.0656C34.858 16.5859 34.9619 16.2231 35.0959 15.9771C35.2305 15.7188 35.4011 15.5897 35.6084 15.5897L35.1325 18.5599ZM45.4916 15.5897C45.6994 15.5897 45.8275 15.7188 45.8759 15.9771C45.9249 16.2231 45.9125 16.592 45.8393 17.084C45.7661 17.5637 45.6628 17.9265 45.5282 18.1725C45.3941 18.4308 45.2235 18.5599 45.0157 18.5599L45.4916 15.5897ZM45.4921 15.5897H55.54L55.0642 18.5599H45.0346L45.4921 15.5897ZM55.54 15.5897C55.7473 15.5897 55.8754 15.7188 55.9244 15.9771C55.9728 16.2231 55.961 16.592 55.8878 17.084C55.8145 17.5637 55.7107 17.9265 55.5766 18.1725C55.442 18.4308 55.2714 18.5599 55.0642 18.5599L55.54 15.5897ZM45.0346 18.5599C44.8268 18.5599 44.6987 18.4308 44.6502 18.1725C44.6012 17.9265 44.6136 17.5575 44.6868 17.0656C44.76 16.5859 44.8634 16.2231 44.998 15.9771C45.132 15.7188 45.3026 15.5897 45.5104 15.5897L45.0346 18.5599ZM55.5368 15.5897H65.5847L65.1088 18.5599H55.0792L55.5368 15.5897ZM65.5847 15.5897C65.7919 15.5897 65.92 15.7188 65.969 15.9771C66.018 16.2231 66.0056 16.592 65.9324 17.084C65.8592 17.5637 65.7553 17.9265 65.6213 18.1725C65.4873 18.4308 65.3161 18.5599 65.1088 18.5599L65.5847 15.5897ZM55.0792 18.5599C54.872 18.5599 54.7439 18.4308 54.6949 18.1725C54.6459 17.9265 54.6583 17.5575 54.7315 17.0656C54.8047 16.5859 54.9086 16.2231 55.0426 15.9771C55.1767 15.7188 55.3478 15.5897 55.5551 15.5897L55.0792 18.5599ZM65.5998 15.5897H69.004L67.796 16.8073V15.5528C67.796 15.0977 67.8202 14.7349 67.8692 14.4643C67.9182 14.1937 68.0033 13.8494 68.1255 13.4312C68.2229 13.1115 68.2961 12.8409 68.3451 12.6195C68.3941 12.3981 68.4183 12.1275 68.4183 11.8077C68.4183 11.4388 68.3817 11.1067 68.3085 10.8115C68.2477 10.5163 68.1561 10.2826 68.0339 10.1105C68.5706 9.82762 69.1014 9.60624 69.6262 9.44633C70.1511 9.28643 70.6146 9.2065 71.0172 9.2065C71.4807 9.2065 71.8166 9.31719 72.0238 9.53858C72.2311 9.75996 72.335 10.092 72.335 10.5348C72.335 10.8177 72.3043 11.1006 72.2435 11.3834C72.1826 11.654 72.0911 11.9799 71.9689 12.3612C71.8467 12.7425 71.7493 13.0746 71.6761 13.3574C71.6153 13.6403 71.5846 13.9293 71.5846 14.2245C71.5846 14.6918 71.682 15.0362 71.8774 15.2576C72.0847 15.479 72.3958 15.5897 72.8108 15.5897H75.2633L74.0554 16.8073V15.5528C74.0554 15.11 74.0796 14.7472 74.1286 14.4643C74.1776 14.1691 74.2626 13.7633 74.3848 13.2467C74.4822 12.8654 74.5555 12.5518 74.6044 12.3059C74.6534 12.0599 74.6776 11.777 74.6776 11.4572C74.6776 11.0882 74.641 10.7562 74.5678 10.461C74.507 10.1658 74.4155 9.93213 74.2933 9.75996C74.83 9.4771 75.3608 9.25572 75.8856 9.09581C76.4104 8.93591 76.8739 8.85598 77.2766 8.85598C77.74 8.85598 78.0759 8.96667 78.2832 9.18805C78.4904 9.40944 78.5943 9.74151 78.5943 10.1843C78.5943 10.4671 78.5636 10.7562 78.5028 11.0514C78.442 11.3342 78.3505 11.7155 78.2283 12.1952C78.1061 12.6133 78.0086 12.9823 77.9354 13.3021C77.8746 13.6218 77.8439 13.9293 77.8439 14.2245C77.8439 14.6918 77.9414 15.0362 78.1368 15.2576C78.344 15.479 78.6551 15.5897 79.0702 15.5897H81.3396L80.2781 16.8073V15.5528C80.2781 15.0854 80.3147 14.6611 80.3879 14.2798C80.4611 13.8986 80.571 13.4681 80.7174 12.9884C80.8396 12.5211 80.9311 12.1398 80.9919 11.8446C81.0527 11.5371 81.0834 11.2174 81.0834 10.8853C81.0834 10.5287 81.0468 10.2027 80.9736 9.90755C80.9004 9.60005 80.8089 9.37254 80.6991 9.22495C81.2481 8.94209 81.7789 8.72071 82.2914 8.56081C82.8038 8.4009 83.2555 8.32098 83.6457 8.32098C84.1092 8.32098 84.451 8.43167 84.6706 8.65305C84.8903 8.86211 85.0001 9.15116 85.0001 9.52013C85.0001 9.75383 84.9452 10.1228 84.8354 10.627C84.7379 11.1313 84.6281 11.6602 84.5059 12.2136C84.2863 13.1484 84.1157 13.917 83.9935 14.5197C83.8713 15.1223 83.7798 15.7127 83.7189 16.2907L82.2548 18.5599H78.3015C77.7034 18.5599 77.2642 18.4062 76.9837 18.0987C76.7151 17.7912 76.5811 17.3115 76.5811 16.6597L77.4596 17.6006H76.5628L75.9405 18.5599H72.0421C71.4441 18.5599 71.0048 18.4062 70.7244 18.0987C70.4558 17.7912 70.3217 17.3115 70.3217 16.6597L71.2002 17.6006H70.3034L69.6812 18.5599H65.1239L65.5998 15.5897ZM65.1239 18.5599C64.9167 18.5599 64.7885 18.4308 64.7396 18.1725C64.6906 17.9265 64.703 17.5575 64.7762 17.0656C64.8494 16.5859 64.9533 16.2231 65.0873 15.9771C65.2213 15.7188 65.3925 15.5897 65.5998 15.5897L65.1239 18.5599Z" fill="#222222"/>
<mask id="mask0_20183_7263" style="mask-type:luminance" maskUnits="userSpaceOnUse" x="8" y="0" width="7" height="7">
<path d="M8.15747 0H14.8879V6.50282H8.15747V0Z" fill="white"/>
</mask>
<g mask="url(#mask0_20183_7263)">
<path d="M14.6633 3.5127C14.6633 3.70785 14.6446 3.903 14.6059 4.09574C14.5678 4.28849 14.5104 4.47401 14.4343 4.65713C14.3601 4.83784 14.2666 5.01134 14.1588 5.17274C14.0492 5.33661 13.9247 5.48839 13.786 5.62573C13.6479 5.76547 13.4944 5.88831 13.3318 5.99912C13.1699 6.10758 12.9951 6.19914 12.8131 6.2738C12.6319 6.35092 12.4454 6.40632 12.2519 6.44489C12.0603 6.48345 11.8648 6.5027 11.6687 6.5027C11.4726 6.5027 11.2765 6.48345 11.083 6.44489C10.892 6.40632 10.703 6.35092 10.5211 6.2738C10.3398 6.19914 10.1675 6.10758 10.005 5.99912C9.83982 5.88831 9.68951 5.76547 9.55081 5.62573C9.41211 5.48839 9.28761 5.33661 9.17794 5.17274C9.06827 5.01134 8.97731 4.83784 8.90054 4.65713C8.82635 4.47401 8.76894 4.28849 8.73087 4.09574C8.69281 3.903 8.67346 3.70785 8.67346 3.5127C8.67346 3.31514 8.69281 3.1224 8.73087 2.92966C8.76894 2.73691 8.82635 2.54898 8.90054 2.36827C8.97731 2.18756 9.06827 2.01413 9.17794 1.85025C9.28761 1.68885 9.41211 1.53701 9.55081 1.39733C9.68951 1.25999 9.83982 1.13469 10.005 1.02628C10.1675 0.917816 10.3398 0.826322 10.5211 0.749198C10.703 0.674481 10.892 0.619077 11.083 0.580515C11.2765 0.542018 11.4726 0.522705 11.6687 0.522705C11.8648 0.522705 12.0603 0.542018 12.2519 0.580515C12.4454 0.619077 12.6319 0.674481 12.8131 0.749198C12.9951 0.826322 13.1699 0.917816 13.3318 1.02628C13.4944 1.13469 13.6479 1.25999 13.786 1.39733C13.9247 1.53701 14.0492 1.68885 14.1588 1.85025C14.2666 2.01413 14.3601 2.18756 14.4343 2.36827C14.5104 2.54898 14.5678 2.73691 14.6059 2.92966C14.6446 3.1224 14.6633 3.31514 14.6633 3.5127Z" fill="#19A7CE"/>
</g>
<mask id="mask1_20183_7263" style="mask-type:luminance" maskUnits="userSpaceOnUse" x="2" y="0" width="8" height="7">
<path d="M2.99658 0H9.72702V6.50282H2.99658V0Z" fill="white"/>
</mask>
<g mask="url(#mask1_20183_7263)">
<path d="M9.50248 3.5127C9.50248 3.70785 9.48377 3.903 9.44506 4.09574C9.407 4.28849 9.34959 4.47401 9.27346 4.65713C9.19928 4.83784 9.10573 5.01134 8.998 5.17274C8.88833 5.33661 8.76382 5.48839 8.62512 5.62573C8.48707 5.76547 8.33354 5.88831 8.17097 5.99912C8.00872 6.10758 7.83428 6.19914 7.65262 6.2738C7.47096 6.35092 7.28452 6.40632 7.09092 6.44489C6.89971 6.48345 6.70373 6.5027 6.50774 6.5027C6.3117 6.5027 6.11571 6.48345 5.92211 6.44489C5.7309 6.40632 5.54208 6.35092 5.36041 6.2738C5.17875 6.19914 5.0067 6.10758 4.84413 5.99912C4.67924 5.88831 4.52861 5.76547 4.39004 5.62573C4.25141 5.48839 4.12709 5.33661 4.01716 5.17274C3.90717 5.01134 3.81634 4.83784 3.73989 4.65713C3.66577 4.47401 3.60842 4.28849 3.57017 4.09574C3.53191 3.903 3.51282 3.70785 3.51282 3.5127C3.51282 3.31514 3.53191 3.1224 3.57017 2.92966C3.60842 2.73691 3.66577 2.54898 3.73989 2.36827C3.81634 2.18756 3.90717 2.01413 4.01716 1.85025C4.12709 1.68885 4.25141 1.53701 4.39004 1.39733C4.52861 1.25999 4.67924 1.13469 4.84413 1.02628C5.0067 0.917816 5.17875 0.826322 5.36041 0.749198C5.54208 0.674481 5.7309 0.619077 5.92211 0.580515C6.11571 0.542018 6.3117 0.522705 6.50774 0.522705C6.70373 0.522705 6.89971 0.542018 7.09092 0.580515C7.28452 0.619077 7.47096 0.674481 7.65262 0.749198C7.83428 0.826322 8.00872 0.917816 8.17097 1.02628C8.33354 1.13469 8.48707 1.25999 8.62512 1.39733C8.76382 1.53701 8.88833 1.68885 8.998 1.85025C9.10573 2.01413 9.19928 2.18756 9.27346 2.36827C9.34959 2.54898 9.407 2.73691 9.44506 2.92966C9.48377 3.1224 9.50248 3.31514 9.50248 3.5127Z" fill="#19A7CE"/>
</g>
<g clip-path="url(#clip0_20183_7263)">
<path d="M6.67064 43.8675C4.50665 43.8675 2.85518 43.5827 1.71623 43.0133C0.593562 42.4276 0.0322266 41.6302 0.0322266 40.6215C0.0322266 40.2148 0.12985 39.808 0.325097 39.4012C0.536616 38.9945 0.821352 38.6528 1.1793 38.3762C1.78132 39.3524 2.52163 40.109 3.40024 40.6459C4.29513 41.1665 5.31205 41.4269 6.45098 41.4269C7.58993 41.4269 8.50923 41.2398 9.20885 40.8656C9.92477 40.4914 10.2827 39.9382 10.2827 39.206C10.2827 38.8318 10.1363 38.5063 9.84341 38.2297C9.55053 37.9532 9.17632 37.7172 8.72073 37.522C8.28143 37.3267 7.66315 37.0827 6.86588 36.7898C5.66186 36.3668 4.66935 35.96 3.88836 35.5695C3.12365 35.179 2.45656 34.6339 1.88707 33.9343C1.33388 33.2347 1.05727 32.3642 1.05727 31.3229C1.05727 30.1188 1.44777 29.0857 2.22876 28.2233C3.00975 27.3447 4.07548 26.6776 5.42593 26.222C6.79266 25.7665 8.33024 25.5387 10.0387 25.5387C11.2101 25.5387 12.2352 25.6607 13.1138 25.9048C14.0087 26.1488 14.6921 26.4905 15.1639 26.9298C15.652 27.3691 15.8961 27.8654 15.8961 28.4186C15.8961 29.1996 15.6358 29.8097 15.1151 30.249C14.5944 30.672 13.9273 30.8836 13.1138 30.8836C12.3328 30.8836 11.6413 30.6639 11.0393 30.2246C10.4536 29.769 9.99799 29.1101 9.67256 28.2477C8.43601 28.3779 7.43537 28.6789 6.67064 29.1507C5.90592 29.6063 5.52356 30.1595 5.52356 30.8103C5.52356 31.1846 5.66999 31.51 5.96286 31.7866C6.27201 32.0632 6.64623 32.2991 7.08554 32.4944C7.54112 32.6733 8.17567 32.9011 8.9892 33.1777C10.1932 33.5845 11.1776 33.975 11.9423 34.3492C12.707 34.7234 13.366 35.2441 13.9192 35.9112C14.4724 36.5783 14.749 37.4243 14.749 38.4494C14.749 39.5558 14.3829 40.5158 13.6507 41.3293C12.9186 42.1428 11.9342 42.7692 10.6976 43.2086C9.47732 43.6479 8.13499 43.8675 6.67064 43.8675ZM23.7947 43.8675C22.8998 43.8675 22.1107 43.6315 21.4273 43.1597C20.744 42.688 20.2151 42.0207 19.8409 41.1585C19.4666 40.2798 19.2796 39.2711 19.2796 38.1321C19.2796 36.3098 19.6863 34.6746 20.4999 33.2265C21.3297 31.7785 22.4685 30.6476 23.9167 29.8341C25.3811 29.0206 27.0325 28.6138 28.8711 28.6138C29.587 28.6138 30.2784 28.6789 30.9456 28.8091C31.1409 29.2158 31.2385 29.7772 31.2385 30.4931C29.7415 30.4931 28.3911 30.8103 27.1871 31.4449C25.9993 32.0632 25.0719 32.9093 24.4049 33.9831C23.7377 35.0407 23.4042 36.2203 23.4042 37.522C23.4042 38.4331 23.5912 39.1409 23.9656 39.6453C24.356 40.1497 24.893 40.4019 25.5763 40.4019C26.8943 40.4019 27.9599 39.5965 28.7735 37.9857C29.6033 36.3586 30.2052 33.8611 30.5796 30.4931C30.9212 30.07 31.3035 29.7528 31.7266 29.5412C32.1659 29.3297 32.6377 29.224 33.1422 29.224C33.6465 29.224 34.037 29.3623 34.3137 29.6389C34.6065 29.9155 34.753 30.3141 34.753 30.8347C34.753 31.1764 34.6959 31.6401 34.5821 32.2259C34.4682 32.7954 34.3137 33.4869 34.1184 34.3004C33.7767 35.7485 33.5163 36.985 33.3374 38.0101C33.1583 39.0351 33.069 40.0358 33.069 41.012C33.069 41.8906 33.2804 42.5089 33.7035 42.8669C32.9062 43.5339 32.052 43.8675 31.1409 43.8675C30.4249 43.8675 29.8718 43.6559 29.4813 43.233C29.0908 42.81 28.8955 42.2079 28.8955 41.4269C28.8955 41.1177 28.9361 40.7436 29.0176 40.3042L28.7735 40.1822C28.2527 41.3537 27.5532 42.2648 26.6746 42.9157C25.8122 43.5502 24.8522 43.8675 23.7947 43.8675ZM41.93 43.8675C41.1327 43.8675 40.555 43.6315 40.1972 43.1597C39.8392 42.688 39.6602 41.9558 39.6602 40.9632C39.6602 40.3287 39.8067 39.0433 40.0996 37.1071C40.3924 35.1709 40.7747 32.893 41.2466 30.2734C41.3279 29.769 41.4092 29.289 41.4907 28.8335C41.572 28.3616 41.6533 27.9223 41.7347 27.5155L40.49 25.8315C41.0758 25.376 41.7103 25.018 42.3937 24.7577C43.0932 24.4811 43.7522 24.3428 44.3706 24.3428C45.0051 24.3428 45.4525 24.4648 45.7129 24.7089C45.9895 24.9529 46.1278 25.3597 46.1278 25.9292C46.1278 26.2708 46.0627 26.7834 45.9326 27.4667C45.8023 28.1338 45.6234 28.9799 45.3956 30.0049C44.9237 32.2015 44.5414 34.154 44.2486 35.8624C43.9718 37.5708 43.8337 39.1734 43.8337 40.6703C43.8337 41.2561 43.8905 41.7035 44.0045 42.0127C44.1183 42.3219 44.281 42.6065 44.4926 42.8669C44.1183 43.1922 43.7034 43.4363 43.2479 43.599C42.8086 43.778 42.3693 43.8675 41.93 43.8675ZM52.6895 43.8675C51.8923 43.8675 51.3147 43.6315 50.9567 43.1597C50.5988 42.688 50.4197 41.9558 50.4197 40.9632C50.4197 40.3287 50.5662 39.0433 50.859 37.1071C51.1519 35.1709 51.5343 32.893 52.0061 30.2734C52.0876 29.769 52.1689 29.289 52.2502 28.8335C52.3316 28.3616 52.4129 27.9223 52.4942 27.5155L51.2495 25.8315C51.8353 25.376 52.4698 25.018 53.1532 24.7577C53.8529 24.4811 54.5118 24.3428 55.1301 24.3428C55.7646 24.3428 56.2122 24.4648 56.4724 24.7089C56.7491 24.9529 56.8873 25.3597 56.8873 25.9292C56.8873 26.2708 56.8223 26.7834 56.692 27.4667C56.5619 28.1338 56.383 28.9799 56.1551 30.0049C55.6833 32.2015 55.3009 34.154 55.008 35.8624C54.7315 37.5708 54.5931 39.1734 54.5931 40.6703C54.5931 41.2561 54.6502 41.7035 54.764 42.0127C54.8779 42.3219 55.0407 42.6065 55.2521 42.8669C54.8779 43.1922 54.463 43.4363 54.0074 43.599C53.5681 43.778 53.1288 43.8675 52.6895 43.8675ZM65.0111 43.8675C64.1162 43.8675 63.3271 43.6315 62.6437 43.1597C61.9604 42.688 61.4315 42.0207 61.0573 41.1585C60.6832 40.2798 60.496 39.2711 60.496 38.1321C60.496 36.3098 60.9028 34.6746 61.7163 33.2265C62.5461 31.7785 63.6851 30.6476 65.1331 29.8341C66.5975 29.0206 68.249 28.6138 70.0875 28.6138C70.8034 28.6138 71.495 28.6789 72.162 28.8091C72.3573 29.2158 72.4549 29.7772 72.4549 30.4931C70.9581 30.4931 69.6075 30.8103 68.4035 31.4449C67.2157 32.0632 66.2883 32.9093 65.6212 33.9831C64.9542 35.0407 64.6206 36.2203 64.6206 37.522C64.6206 38.4331 64.8078 39.1409 65.1819 39.6453C65.5724 40.1497 66.1094 40.4019 66.7927 40.4019C68.1107 40.4019 69.1764 39.5965 69.9899 37.9857C70.8197 36.3586 71.4218 33.8611 71.7959 30.4931C72.1376 30.07 72.52 29.7528 72.943 29.5412C73.3823 29.3297 73.8541 29.224 74.3586 29.224C74.863 29.224 75.2535 29.3623 75.5301 29.6389C75.8229 29.9155 75.9694 30.3141 75.9694 30.8347C75.9694 31.1764 75.9125 31.6401 75.7985 32.2259C75.6846 32.7954 75.5301 33.4869 75.3348 34.3004C74.9931 35.7485 74.7327 36.985 74.5538 38.0101C74.3749 39.0351 74.2853 40.0358 74.2853 41.012C74.2853 41.8906 74.4969 42.5089 74.9199 42.8669C74.1226 43.5339 73.2684 43.8675 72.3573 43.8675C71.6414 43.8675 71.0882 43.6559 70.6977 43.233C70.3072 42.81 70.1119 42.2079 70.1119 41.4269C70.1119 41.1177 70.1527 40.7436 70.234 40.3042L69.9899 40.1822C69.4693 41.3537 68.7696 42.2648 67.891 42.9157C67.0287 43.5502 66.0686 43.8675 65.0111 43.8675Z" fill="#222222"/>
</g>
<mask id="mask2_20183_7263" style="mask-type:luminance" maskUnits="userSpaceOnUse" x="77" y="37" width="8" height="7">
<path d="M77.594 37.198H84.3244V43.7008H77.594V37.198Z" fill="white"/>
</mask>
<g mask="url(#mask2_20183_7263)">
<path d="M84.0997 40.7107C84.0997 40.9058 84.081 41.101 84.0423 41.2937C84.0042 41.4865 83.9468 41.672 83.8707 41.8551C83.7965 42.0358 83.703 42.2093 83.5952 42.3707C83.4856 42.5346 83.3611 42.6864 83.2224 42.8237C83.0843 42.9635 82.9308 43.0863 82.7682 43.1971C82.6063 43.3056 82.4315 43.3971 82.2495 43.4718C82.0683 43.5489 81.8818 43.6043 81.6883 43.6429C81.4967 43.6814 81.3012 43.7007 81.1051 43.7007C80.909 43.7007 80.7129 43.6814 80.5194 43.6429C80.3284 43.6043 80.1394 43.5489 79.9575 43.4718C79.7762 43.3971 79.6039 43.3056 79.4414 43.1971C79.2762 43.0863 79.1259 42.9635 78.9872 42.8237C78.8485 42.6864 78.724 42.5346 78.6143 42.3707C78.5047 42.2093 78.4137 42.0358 78.3369 41.8551C78.2628 41.672 78.2053 41.4865 78.1673 41.2937C78.1292 41.101 78.1099 40.9058 78.1099 40.7107C78.1099 40.5131 78.1292 40.3204 78.1673 40.1277C78.2053 39.9349 78.2628 39.747 78.3369 39.5663C78.4137 39.3856 78.5047 39.2121 78.6143 39.0483C78.724 38.8869 78.8485 38.735 78.9872 38.5953C79.1259 38.458 79.2762 38.3327 79.4414 38.2243C79.6039 38.1158 79.7762 38.0243 79.9575 37.9472C80.1394 37.8725 80.3284 37.8171 80.5194 37.7785C80.7129 37.74 80.909 37.7207 81.1051 37.7207C81.3012 37.7207 81.4967 37.74 81.6883 37.7785C81.8818 37.8171 82.0683 37.8725 82.2495 37.9472C82.4315 38.0243 82.6063 38.1158 82.7682 38.2243C82.9308 38.3327 83.0843 38.458 83.2224 38.5953C83.3611 38.735 83.4856 38.8869 83.5952 39.0483C83.703 39.2121 83.7965 39.3856 83.8707 39.5663C83.9468 39.747 84.0042 39.9349 84.0423 40.1277C84.081 40.3204 84.0997 40.5131 84.0997 40.7107Z" fill="#19A7CE"/>
</g>
<defs>
<clipPath id="clip0_20183_7263">
<rect width="76.0792" height="19.6931" fill="white" transform="translate(0 24.2375)"/>
</clipPath>
</defs>
</svg>
