<svg width="899" height="249" viewBox="0 0 899 249" fill="none" xmlns="http://www.w3.org/2000/svg">
<mask id="mask0_20102_5771" style="mask-type:luminance" maskUnits="userSpaceOnUse" x="120" y="13" width="273" height="171">
<path d="M120.739 13.3564H392.603V183.357H120.739V13.3564Z" fill="white"/>
</mask>
<g mask="url(#mask0_20102_5771)">
<path d="M392.603 59.2306L365.45 171.806C365.45 172.884 365.236 173.914 364.832 174.921C364.403 175.904 363.809 176.791 363.048 177.557C362.288 178.325 361.408 178.924 360.409 179.331C359.41 179.739 358.364 179.954 357.271 179.954L174.379 181.273C173.285 181.273 172.239 181.081 171.241 180.649C170.242 180.242 169.362 179.643 168.602 178.876C167.84 178.109 167.246 177.246 166.818 176.239C166.414 175.233 166.2 174.202 166.2 173.124V59.2306C166.2 58.9909 166.2 58.7751 166.224 58.5594L163.751 36.5096H136.717C135.219 36.4613 133.792 36.126 132.413 35.5026C131.058 34.9037 129.869 34.0406 128.823 32.9623C127.777 31.8835 126.992 30.6612 126.421 29.2715C125.875 27.8813 125.589 26.4432 125.589 24.9573C125.589 23.4709 125.875 22.0329 126.421 20.6432C126.992 19.2529 127.777 18.0067 128.823 16.9518C129.869 15.8735 131.058 15.0105 132.413 14.4116C133.792 13.7882 135.219 13.4529 136.717 13.405H184.437C184.437 13.4289 184.437 13.4768 184.437 13.5246L187.029 36.5335L188.669 51.0816H384.424C385.518 51.0816 386.54 51.2734 387.538 51.7049C388.561 52.112 389.441 52.7115 390.201 53.4783C390.963 54.2452 391.557 55.1082 391.961 56.1148C392.389 57.1213 392.603 58.1523 392.603 59.2306Z" fill="white"/>
</g>
<mask id="mask1_20102_5771" style="mask-type:luminance" maskUnits="userSpaceOnUse" x="163" y="183" width="62" height="66">
<path d="M163.348 183.358H224.216V248.046H163.348V183.358Z" fill="white"/>
</mask>
<g mask="url(#mask1_20102_5771)">
<path d="M223.123 218.302C223.123 220.244 222.909 222.185 222.528 224.102C222.148 226.019 221.601 227.865 220.84 229.687C220.103 231.484 219.175 233.21 218.082 234.816C217.012 236.446 215.775 237.955 214.396 239.322C212.994 240.712 211.496 241.934 209.879 243.036C208.238 244.115 206.527 245.026 204.719 245.769C202.912 246.536 201.058 247.087 199.132 247.471C197.206 247.854 195.28 248.046 193.33 248.046C191.357 248.046 189.431 247.854 187.505 247.471C185.579 247.087 183.724 246.536 181.917 245.769C180.11 245.026 178.398 244.115 176.758 243.036C175.141 241.934 173.643 240.712 172.264 239.322C170.861 237.955 169.625 236.446 168.555 234.816C167.461 233.21 166.534 231.484 165.797 229.687C165.036 227.865 164.489 226.019 164.109 224.102C163.728 222.185 163.538 220.244 163.538 218.302C163.538 216.337 163.728 214.419 164.109 212.502C164.489 210.584 165.036 208.715 165.797 206.917C166.534 205.12 167.461 203.395 168.555 201.765C169.625 200.159 170.861 198.649 172.264 197.259C173.643 195.892 175.141 194.646 176.758 193.568C178.398 192.489 180.11 191.578 181.917 190.811C183.724 190.068 185.579 189.517 187.505 189.134C189.431 188.75 191.357 188.559 193.33 188.559C195.28 188.559 197.206 188.75 199.132 189.134C201.058 189.517 202.912 190.068 204.719 190.811C206.527 191.578 208.238 192.489 209.879 193.568C211.496 194.646 212.994 195.892 214.396 197.259C215.775 198.649 217.012 200.159 218.082 201.765C219.175 203.395 220.103 205.12 220.84 206.917C221.601 208.715 222.148 210.584 222.528 212.502C222.909 214.419 223.123 216.337 223.123 218.302Z" fill="#FEFF86"/>
</g>
<mask id="mask2_20102_5771" style="mask-type:luminance" maskUnits="userSpaceOnUse" x="242" y="183" width="68" height="66">
<path d="M242.475 183.358H309.43V248.046H242.475V183.358Z" fill="white"/>
</mask>
<g mask="url(#mask2_20102_5771)">
<path d="M307.197 218.302C307.197 220.244 307.007 222.185 306.626 224.102C306.246 226.019 305.675 227.865 304.914 229.687C304.177 231.484 303.25 233.21 302.18 234.816C301.086 236.446 299.85 237.955 298.471 239.322C297.092 240.712 295.57 241.934 293.953 243.036C292.336 244.115 290.601 245.026 288.794 245.769C286.987 246.536 285.132 247.087 283.206 247.471C281.304 247.854 279.354 248.046 277.405 248.046C275.455 248.046 273.506 247.854 271.58 247.471C269.677 247.087 267.799 246.536 265.992 245.769C264.185 245.026 262.473 244.115 260.856 243.036C259.216 241.934 257.718 240.712 256.339 239.322C254.959 237.955 253.723 236.446 252.629 234.816C251.536 233.21 250.632 231.484 249.871 229.687C249.134 227.865 248.563 226.019 248.183 224.102C247.803 222.185 247.612 220.244 247.612 218.302C247.612 216.337 247.803 214.419 248.183 212.502C248.563 210.584 249.134 208.715 249.871 206.917C250.632 205.12 251.536 203.395 252.629 201.765C253.723 200.159 254.959 198.649 256.339 197.259C257.718 195.892 259.216 194.646 260.856 193.568C262.473 192.489 264.185 191.578 265.992 190.811C267.799 190.068 269.677 189.517 271.58 189.134C273.506 188.75 275.455 188.559 277.405 188.559C279.354 188.559 281.304 188.75 283.206 189.134C285.132 189.517 286.987 190.068 288.794 190.811C290.601 191.578 292.336 192.489 293.953 193.568C295.57 194.646 297.092 195.892 298.471 197.259C299.85 198.649 301.086 200.159 302.18 201.765C303.25 203.395 304.177 205.12 304.914 206.917C305.675 208.715 306.246 210.584 306.626 212.502C307.007 214.419 307.197 216.337 307.197 218.302Z" fill="#FEFF86"/>
</g>
<path d="M78.1316 60.981H146.323C147.37 60.981 148.368 61.1967 149.343 61.5804C150.318 61.9875 151.198 62.563 151.935 63.306C152.672 64.0489 153.242 64.9114 153.647 65.8702C154.051 66.8533 154.265 67.8598 154.265 68.9142V70.9034C154.265 71.9582 154.051 72.9648 153.647 73.9235C153.242 74.9061 152.672 75.7691 151.935 76.5121C151.198 77.255 150.318 77.8301 149.343 78.2377C148.368 78.6208 147.37 78.8366 146.323 78.8366H78.1316C77.0614 78.8366 76.0628 78.6208 75.088 78.2377C74.1132 77.8301 73.257 77.255 72.4963 76.5121C71.7592 75.7691 71.1888 74.9061 70.7844 73.9235C70.3801 72.9648 70.166 71.9582 70.166 70.9034V68.9142C70.166 67.8598 70.3801 66.8533 70.7844 65.8702C71.1888 64.9114 71.7592 64.0489 72.4963 63.306C73.257 62.563 74.1132 61.9875 75.088 61.5804C76.0628 61.1967 77.0614 60.981 78.1316 60.981Z" fill="white"/>
<path d="M78.1316 172.021H146.323C147.37 172.021 148.368 172.237 149.343 172.644C150.318 173.028 151.198 173.603 151.935 174.346C152.672 175.089 153.242 175.952 153.647 176.935C154.051 177.893 154.265 178.9 154.265 179.954V181.944C154.265 182.998 154.051 184.005 153.647 184.987C153.242 185.946 152.672 186.809 151.935 187.552C151.198 188.295 150.318 188.87 149.343 189.278C148.368 189.685 147.37 189.877 146.323 189.877H78.1316C77.0614 189.877 76.0628 189.661 75.088 189.278C74.1132 188.87 73.257 188.295 72.4963 187.552C71.7592 186.809 71.1888 185.946 70.7844 184.987C70.3801 184.005 70.166 182.998 70.166 181.944V179.954C70.166 178.9 70.3801 177.893 70.7844 176.935C71.1888 175.952 71.7592 175.089 72.4963 174.346C73.257 173.603 74.1132 173.028 75.088 172.644C76.0628 172.237 77.0614 172.021 78.1316 172.021Z" fill="white"/>
<mask id="mask3_20102_5771" style="mask-type:luminance" maskUnits="userSpaceOnUse" x="0" y="109" width="158" height="26">
<path d="M0 109.731H157.26V134.273H0V109.731Z" fill="white"/>
</mask>
<g mask="url(#mask3_20102_5771)">
<path d="M8.94007 115.195H145.324C146.513 115.195 147.654 115.41 148.748 115.866C149.841 116.321 150.792 116.969 151.649 117.807C152.481 118.646 153.123 119.605 153.574 120.683C154.026 121.786 154.264 122.936 154.264 124.11C154.264 125.285 154.026 126.435 153.574 127.514C153.123 128.616 152.481 129.575 151.649 130.414C150.792 131.253 149.841 131.9 148.748 132.356C147.654 132.811 146.513 133.027 145.324 133.027H8.94007C7.75127 133.027 6.60997 132.811 5.51623 132.356C4.42249 131.9 3.44764 131.253 2.61545 130.414C1.78326 129.575 1.14128 128.616 0.665752 127.514C0.21399 126.435 0 125.285 0 124.11C0 122.936 0.21399 121.786 0.665752 120.683C1.14128 119.605 1.78326 118.646 2.61545 117.807C3.44764 116.969 4.42249 116.321 5.51623 115.866C6.60997 115.41 7.75127 115.195 8.94007 115.195Z" fill="#FEFF86"/>
</g>
<path d="M477.654 29.9105C474.82 29.9105 472.571 29.1785 470.911 27.7146C469.251 26.2507 468.421 24.2987 468.421 21.8589C468.421 18.3036 469.596 15.4105 471.948 13.1799C474.301 10.9492 477.309 9.83374 480.974 9.83374C483.808 9.83374 486.057 10.6005 487.717 12.1342C489.447 13.5981 490.31 15.5501 490.31 17.9899C490.31 21.5452 489.099 24.4383 486.679 26.669C484.327 28.8301 481.318 29.9105 477.654 29.9105ZM454.209 29.9105C451.374 29.9105 449.126 29.1785 447.466 27.7146C445.807 26.2507 444.977 24.2987 444.977 21.8589C444.977 18.3036 446.152 15.4105 448.504 13.1799C450.855 10.9492 453.864 9.83374 457.529 9.83374C460.364 9.83374 462.612 10.6005 464.272 12.1342C466.002 13.5981 466.865 15.5501 466.865 17.9899C466.865 21.5452 465.654 24.4383 463.235 26.669C460.883 28.8301 457.875 29.9105 454.209 29.9105ZM469.977 88.3632H504.729L502.032 105.198H461.886L469.977 88.3632ZM456.18 105.198C446.429 105.198 438.718 102.793 433.047 97.9833C427.376 93.1733 424.541 86.3417 424.541 77.4883C424.541 69.9595 426.581 63.302 430.661 57.5161C434.741 51.7302 440.136 47.2686 446.844 44.1316C453.621 40.9946 460.918 39.4261 468.733 39.4261C475.164 39.4261 480.455 40.437 484.604 42.4585C488.824 44.48 491.796 46.8503 493.526 49.569L486.16 92.3367L477.654 105.198H456.18ZM472.882 49.569L473.712 57.9343C473.782 57.1676 473.401 56.7143 472.571 56.575C471.811 56.3658 470.53 56.2613 468.733 56.2613C463.961 56.2613 459.777 57.1326 456.18 58.8754C452.653 60.6183 449.887 63.1627 447.881 66.5088C445.945 69.8549 444.977 73.8285 444.977 78.4294C444.977 82.2636 445.772 84.8778 447.363 86.2719C449.023 87.666 451.962 88.3632 456.18 88.3632H468.733L466.035 89.5134L472.882 49.569ZM504.729 88.3632C505.904 88.3632 506.63 89.0952 506.908 90.5591C507.186 91.9532 507.115 94.0446 506.7 96.8331C506.286 99.5518 505.697 101.608 504.937 103.003C504.177 104.466 503.207 105.198 502.032 105.198L504.729 88.3632ZM504.766 88.3632H561.718L559.021 105.198H502.173L504.766 88.3632ZM561.718 88.3632C562.893 88.3632 563.619 89.0952 563.896 90.5591C564.174 91.9532 564.104 94.0446 563.689 96.8331C563.274 99.5518 562.685 101.608 561.925 103.003C561.166 104.466 560.195 105.198 559.021 105.198L561.718 88.3632ZM502.173 105.198C500.998 105.198 500.272 104.466 499.994 103.003C499.717 101.608 499.787 99.5171 500.202 96.7285C500.617 94.0098 501.205 91.9532 501.965 90.5591C502.725 89.0952 503.695 88.3632 504.87 88.3632L502.173 105.198ZM561.7 88.3632H618.651L615.954 105.198H559.106L561.7 88.3632ZM618.651 88.3632C619.826 88.3632 620.552 89.0952 620.83 90.5591C621.107 91.9532 621.037 94.0446 620.622 96.8331C620.207 99.5518 619.619 101.608 618.859 103.003C618.099 104.466 617.129 105.198 615.954 105.198L618.651 88.3632ZM559.106 105.198C557.931 105.198 557.205 104.466 556.928 103.003C556.65 101.608 556.72 99.5171 557.135 96.7285C557.55 94.0098 558.139 91.9532 558.899 90.5591C559.658 89.0952 560.629 88.3632 561.803 88.3632L559.106 105.198ZM659.713 105.198C656.326 105.198 653.837 104.327 652.244 102.584C650.724 100.841 649.962 98.1226 649.962 94.4281L657.534 99.761H643.53L656.082 72.4691L655.978 73.6193C655.771 74.9439 655.6 76.1987 655.46 77.3837C655.393 78.5687 655.356 79.6494 655.356 80.6253C655.356 83.0651 655.911 84.9823 657.016 86.3764C658.194 87.7011 659.92 88.3632 662.203 88.3632H674.755L672.058 105.198H659.713ZM618.737 88.3632H640.107L633.156 90.5591C633.089 88.1193 633.571 83.5532 634.609 76.8609C635.716 70.1686 637.272 61.2107 639.277 49.9873C639.832 46.9201 640.351 44.0618 640.833 41.4128C641.318 38.6941 641.733 36.1845 642.078 33.884L645.397 43.1905L635.646 29.1785C638.898 26.8083 642.181 24.9611 645.501 23.6365C648.821 22.2424 652.14 21.5452 655.46 21.5452C658.435 21.5452 660.58 22.1378 661.891 23.3228C663.207 24.5078 663.862 26.39 663.862 28.9694C663.862 30.7123 663.621 32.8731 663.136 35.4525C662.654 38.032 661.928 41.5174 660.958 45.9092C659.023 54.5535 657.501 62.5005 656.393 69.7504C655.289 76.9307 654.734 84.4595 654.734 92.3367L646.538 105.198H616.04L618.737 88.3632ZM616.04 105.198C614.865 105.198 614.139 104.466 613.861 103.003C613.587 101.608 613.654 99.5171 614.069 96.7285C614.484 94.0098 615.072 91.9532 615.832 90.5591C616.595 89.0952 617.562 88.3632 618.737 88.3632L616.04 105.198ZM674.755 88.3632C675.933 88.3632 676.659 89.0952 676.933 90.5591C677.211 91.9532 677.141 94.0446 676.726 96.8331C676.311 99.5518 675.725 101.608 674.962 103.003C674.203 104.466 673.235 105.198 672.058 105.198L674.755 88.3632ZM674.758 88.3632H731.71L729.013 105.198H672.164L674.758 88.3632ZM731.71 88.3632C732.884 88.3632 733.611 89.0952 733.888 90.5591C734.163 91.9532 734.096 94.0446 733.681 96.8331C733.266 99.5518 732.677 101.608 731.917 103.003C731.154 104.466 730.187 105.198 729.013 105.198L731.71 88.3632ZM672.164 105.198C670.987 105.198 670.261 104.466 669.986 103.003C669.708 101.608 669.779 99.5171 670.193 96.7285C670.608 94.0098 671.194 91.9532 671.957 90.5591C672.717 89.0952 673.684 88.3632 674.862 88.3632L672.164 105.198ZM731.691 88.3632H788.643L785.946 105.198H729.098L731.691 88.3632ZM788.643 88.3632C789.818 88.3632 790.544 89.0952 790.822 90.5591C791.099 91.9532 791.029 94.0446 790.614 96.8331C790.199 99.5518 789.61 101.608 788.851 103.003C788.091 104.466 787.121 105.198 785.946 105.198L788.643 88.3632ZM729.098 105.198C727.923 105.198 727.197 104.466 726.919 103.003C726.642 101.608 726.712 99.5171 727.127 96.7285C727.542 94.0098 728.131 91.9532 728.891 90.5591C729.65 89.0952 730.62 88.3632 731.795 88.3632L729.098 105.198ZM788.729 88.3632H808.024L801.177 95.2646V88.1541C801.177 85.5747 801.314 83.5184 801.592 81.9846C801.87 80.4509 802.352 78.4992 803.044 76.1289C803.597 74.3165 804.012 72.7828 804.289 71.528C804.567 70.2732 804.704 68.7394 804.704 66.9271C804.704 64.8357 804.497 62.9535 804.082 61.2805C803.737 59.6074 803.218 58.2828 802.526 57.3069C805.568 55.7037 808.576 54.4489 811.551 53.5426C814.526 52.6362 817.153 52.1832 819.435 52.1832C822.062 52.1832 823.966 52.8106 825.14 54.0654C826.315 55.3202 826.904 57.2024 826.904 59.712C826.904 61.3152 826.73 62.9188 826.385 64.522C826.04 66.0558 825.522 67.9029 824.829 70.0641C824.137 72.2252 823.584 74.1074 823.169 75.7107C822.825 77.3139 822.651 78.9522 822.651 80.6253C822.651 83.2742 823.203 85.2262 824.311 86.481C825.485 87.7358 827.249 88.3632 829.601 88.3632H843.502L836.655 95.2646V88.1541C836.655 85.6445 836.793 83.5879 837.07 81.9846C837.348 80.3116 837.83 78.0111 838.523 75.0833C839.075 72.9221 839.49 71.1445 839.767 69.7504C840.045 68.3563 840.182 66.7527 840.182 64.9403C840.182 62.849 839.975 60.9668 839.56 59.2937C839.215 57.6206 838.696 56.296 838.004 55.3202C841.046 53.7169 844.054 52.4621 847.029 51.5558C850.004 50.6494 852.631 50.1964 854.913 50.1964C857.54 50.1964 859.444 50.8238 860.619 52.0786C861.793 53.3334 862.382 55.2156 862.382 57.7252C862.382 59.3285 862.208 60.9668 861.863 62.6398C861.519 64.2431 861 66.4042 860.307 69.123C859.615 71.4932 859.063 73.5846 858.648 75.397C858.303 77.2093 858.129 78.9522 858.129 80.6253C858.129 83.2742 858.681 85.2262 859.789 86.481C860.963 87.7358 862.727 88.3632 865.079 88.3632H877.943L871.926 95.2646V88.1541C871.926 85.5052 872.133 83.1001 872.548 80.939C872.963 78.7778 873.586 76.3381 874.416 73.6193C875.108 70.9704 875.627 68.8093 875.972 67.1362C876.316 65.3933 876.49 63.5809 876.49 61.6987C876.49 59.6772 876.283 57.8298 875.868 56.1567C875.453 54.4138 874.934 53.1243 874.312 52.2878C877.424 50.6845 880.432 49.4297 883.337 48.5234C886.242 47.617 888.802 47.164 891.014 47.164C893.641 47.164 895.578 47.7914 896.823 49.0462C898.068 50.2312 898.69 51.8695 898.69 53.9608C898.69 55.2854 898.379 57.3768 897.757 60.2348C897.204 63.0929 896.582 66.0905 895.889 69.2275C894.644 74.5257 893.677 78.8824 892.985 82.2983C892.292 85.7143 891.773 89.0604 891.429 92.3367L883.13 105.198H860.722C857.333 105.198 854.843 104.327 853.253 102.584C851.731 100.841 850.971 98.1226 850.971 94.4281L855.95 99.761H850.867L847.34 105.198H825.244C821.854 105.198 819.365 104.327 817.775 102.584C816.253 100.841 815.493 98.1226 815.493 94.4281L820.472 99.761H815.389L811.862 105.198H786.031L788.729 88.3632ZM786.031 105.198C784.857 105.198 784.131 104.466 783.853 103.003C783.575 101.608 783.646 99.5171 784.06 96.7285C784.475 94.0098 785.064 91.9532 785.824 90.5591C786.584 89.0952 787.554 88.3632 788.729 88.3632L786.031 105.198Z" fill="white"/>
<mask id="mask4_20102_5771" style="mask-type:luminance" maskUnits="userSpaceOnUse" x="463" y="0" width="39" height="37">
<path d="M463.144 0H501.292V36.8581H463.144V0Z" fill="white"/>
</mask>
<g mask="url(#mask4_20102_5771)">
<path d="M500.02 19.9098C500.02 21.0159 499.914 22.122 499.695 23.2145C499.479 24.3069 499.153 25.3585 498.722 26.3964C498.301 27.4207 497.771 28.4041 497.161 29.3189C496.539 30.2477 495.833 31.108 495.047 31.8864C494.265 32.6785 493.394 33.3748 492.473 34.0028C491.555 34.6176 490.564 35.1366 489.533 35.5597C488.506 35.9969 487.449 36.3109 486.352 36.5295C485.266 36.748 484.158 36.8571 483.046 36.8571C481.935 36.8571 480.823 36.748 479.726 36.5295C478.644 36.3109 477.573 35.9969 476.542 35.5597C475.514 35.1366 474.538 34.6176 473.616 34.0028C472.68 33.3748 471.828 32.6785 471.042 31.8864C470.256 31.108 469.55 30.2477 468.929 29.3189C468.307 28.4041 467.792 27.4207 467.356 26.3964C466.936 25.3585 466.61 24.3069 466.395 23.2145C466.179 22.122 466.069 21.0159 466.069 19.9098C466.069 18.79 466.179 17.6975 466.395 16.6051C466.61 15.5126 466.936 14.4474 467.356 13.4231C467.792 12.3988 468.307 11.4158 468.929 10.487C469.55 9.57217 470.256 8.71153 471.042 7.91982C471.828 7.14138 472.68 6.43112 473.616 5.81669C474.538 5.2019 475.514 4.68331 476.542 4.24617C477.573 3.82267 478.644 3.50864 479.726 3.29007C480.823 3.07187 481.935 2.9624 483.046 2.9624C484.158 2.9624 485.266 3.07187 486.352 3.29007C487.449 3.50864 488.506 3.82267 489.533 4.24617C490.564 4.68331 491.555 5.2019 492.473 5.81669C493.394 6.43112 494.265 7.14138 495.047 7.91982C495.833 8.71153 496.539 9.57217 497.161 10.487C497.771 11.4158 498.301 12.3988 498.722 13.4231C499.153 14.4474 499.479 15.5126 499.695 16.6051C499.914 17.6975 500.02 18.79 500.02 19.9098Z" fill="#FEFF86"/>
</g>
<mask id="mask5_20102_5771" style="mask-type:luminance" maskUnits="userSpaceOnUse" x="433" y="0" width="40" height="37">
<path d="M433.891 0H472.039V36.8581H433.891V0Z" fill="white"/>
</mask>
<g mask="url(#mask5_20102_5771)">
<path d="M470.766 19.9098C470.766 21.0159 470.66 22.122 470.441 23.2145C470.225 24.3069 469.9 25.3585 469.468 26.3964C469.048 27.4207 468.518 28.4041 467.907 29.3189C467.285 30.2477 466.58 31.108 465.794 31.8864C465.011 32.6785 464.141 33.3748 463.219 34.0028C462.3 34.6176 461.311 35.1366 460.281 35.5597C459.252 35.9969 458.195 36.3109 457.098 36.5295C456.014 36.748 454.903 36.8571 453.792 36.8571C452.681 36.8571 451.57 36.748 450.473 36.5295C449.389 36.3109 448.319 35.9969 447.289 35.5597C446.259 35.1366 445.284 34.6176 444.363 34.0028C443.428 33.3748 442.574 32.6785 441.789 31.8864C441.003 31.108 440.299 30.2477 439.676 29.3189C439.052 28.4041 438.537 27.4207 438.104 26.3964C437.684 25.3585 437.359 24.3069 437.142 23.2145C436.925 22.122 436.817 21.0159 436.817 19.9098C436.817 18.79 436.925 17.6975 437.142 16.6051C437.359 15.5126 437.684 14.4474 438.104 13.4231C438.537 12.3988 439.052 11.4158 439.676 10.487C440.299 9.57217 441.003 8.71153 441.789 7.91982C442.574 7.14138 443.428 6.43112 444.363 5.81669C445.284 5.2019 446.259 4.68331 447.289 4.24617C448.319 3.82267 449.389 3.50864 450.473 3.29007C451.57 3.07187 452.681 2.9624 453.792 2.9624C454.903 2.9624 456.014 3.07187 457.098 3.29007C458.195 3.50864 459.252 3.82267 460.281 4.24617C461.311 4.68331 462.3 5.2019 463.219 5.81669C464.141 6.43112 465.011 7.14138 465.794 7.91982C466.58 8.71153 467.285 9.57217 467.907 10.487C468.518 11.4158 469.048 12.3988 469.468 13.4231C469.9 14.4474 470.225 15.5126 470.441 16.6051C470.66 17.6975 470.766 18.79 470.766 19.9098Z" fill="#FEFF86"/>
</g>
<g clip-path="url(#clip0_20102_5771)">
<path d="M454.718 248.642C442.452 248.642 433.092 247.028 426.636 243.801C420.273 240.481 417.091 235.961 417.091 230.244C417.091 227.938 417.645 225.633 418.751 223.327C419.95 221.022 421.564 219.085 423.593 217.517C427.005 223.051 431.201 227.339 436.181 230.382C441.254 233.333 447.017 234.809 453.473 234.809C459.929 234.809 465.139 233.748 469.105 231.627C473.162 229.506 475.191 226.371 475.191 222.221C475.191 220.1 474.361 218.255 472.701 216.687C471.041 215.12 468.92 213.782 466.338 212.676C463.848 211.569 460.344 210.186 455.825 208.526C449 206.128 443.375 203.822 438.948 201.609C434.614 199.396 430.832 196.306 427.605 192.341C424.469 188.375 422.901 183.441 422.901 177.539C422.901 170.715 425.115 164.858 429.541 159.971C433.968 154.991 440.009 151.21 447.663 148.627C455.41 146.045 464.125 144.754 473.808 144.754C480.448 144.754 486.258 145.446 491.238 146.829C496.31 148.212 500.184 150.149 502.858 152.639C505.625 155.129 507.008 157.942 507.008 161.077C507.008 165.504 505.533 168.962 502.581 171.452C499.63 173.85 495.849 175.049 491.238 175.049C486.811 175.049 482.892 173.804 479.48 171.314C476.16 168.732 473.577 164.997 471.733 160.109C464.724 160.847 459.052 162.553 454.718 165.227C450.384 167.81 448.216 170.945 448.216 174.634C448.216 176.755 449.046 178.6 450.706 180.167C452.459 181.735 454.58 183.072 457.07 184.179C459.652 185.193 463.249 186.485 467.86 188.052C474.684 190.358 480.264 192.571 484.598 194.692C488.932 196.813 492.667 199.765 495.803 203.546C498.939 207.327 500.506 212.122 500.506 217.932C500.506 224.203 498.431 229.645 494.281 234.256C490.131 238.866 484.552 242.417 477.543 244.907C470.626 247.397 463.018 248.642 454.718 248.642ZM551.778 248.642C546.705 248.642 542.233 247.305 538.359 244.631C534.486 241.957 531.488 238.175 529.368 233.287C527.246 228.307 526.186 222.59 526.186 216.134C526.186 205.805 528.491 196.537 533.103 188.329C537.806 180.121 544.261 173.712 552.469 169.101C560.769 164.49 570.129 162.184 580.551 162.184C584.608 162.184 588.528 162.553 592.309 163.291C593.416 165.596 593.969 168.778 593.969 172.836C585.484 172.836 577.83 174.634 571.006 178.231C564.273 181.735 559.017 186.531 555.236 192.617C551.454 198.612 549.564 205.298 549.564 212.676C549.564 217.84 550.624 221.852 552.746 224.711C554.959 227.57 558.003 228.999 561.876 228.999C569.346 228.999 575.386 224.434 579.998 215.304C584.701 206.082 588.113 191.926 590.234 172.836C592.171 170.438 594.338 168.64 596.736 167.441C599.226 166.242 601.9 165.642 604.759 165.642C607.618 165.642 609.831 166.426 611.399 167.994C613.059 169.562 613.889 171.821 613.889 174.772C613.889 176.709 613.566 179.337 612.921 182.657C612.275 185.885 611.399 189.805 610.293 194.416C608.356 202.623 606.88 209.632 605.866 215.442C604.851 221.252 604.344 226.924 604.344 232.457C604.344 237.437 605.543 240.941 607.941 242.971C603.422 246.751 598.58 248.642 593.416 248.642C589.358 248.642 586.223 247.443 584.009 245.046C581.796 242.648 580.689 239.236 580.689 234.809C580.689 233.056 580.919 230.936 581.381 228.446L579.998 227.754C577.046 234.394 573.081 239.558 568.101 243.247C563.213 246.844 557.772 248.642 551.778 248.642ZM654.569 248.642C650.05 248.642 646.775 247.305 644.747 244.631C642.718 241.957 641.704 237.807 641.704 232.181C641.704 228.584 642.534 221.298 644.194 210.324C645.854 199.35 648.02 186.438 650.696 171.591C651.156 168.732 651.617 166.011 652.079 163.429C652.54 160.755 653 158.265 653.462 155.959L646.407 146.414C649.727 143.832 653.324 141.803 657.197 140.327C661.162 138.759 664.897 137.976 668.402 137.976C671.999 137.976 674.535 138.667 676.011 140.051C677.578 141.434 678.362 143.739 678.362 146.967C678.362 148.904 677.993 151.809 677.256 155.682C676.517 159.463 675.503 164.259 674.212 170.069C671.537 182.519 669.371 193.586 667.711 203.269C666.142 212.952 665.359 222.036 665.359 230.521C665.359 233.841 665.681 236.376 666.327 238.129C666.972 239.882 667.895 241.495 669.094 242.971C666.972 244.815 664.62 246.198 662.039 247.121C659.549 248.135 657.059 248.642 654.569 248.642ZM715.554 248.642C711.036 248.642 707.761 247.305 705.732 244.631C703.704 241.957 702.689 237.807 702.689 232.181C702.689 228.584 703.519 221.298 705.179 210.324C706.839 199.35 709.006 186.438 711.681 171.591C712.142 168.732 712.603 166.011 713.064 163.429C713.526 160.755 713.986 158.265 714.447 155.959L707.392 146.414C710.712 143.832 714.309 141.803 718.182 140.327C722.148 138.759 725.883 137.976 729.387 137.976C732.984 137.976 735.521 138.667 736.996 140.051C738.564 141.434 739.347 143.739 739.347 146.967C739.347 148.904 738.979 151.809 738.241 155.682C737.503 159.463 736.489 164.259 735.197 170.069C732.523 182.519 730.356 193.586 728.696 203.269C727.128 212.952 726.344 222.036 726.344 230.521C726.344 233.841 726.667 236.376 727.312 238.129C727.958 239.882 728.881 241.495 730.079 242.971C727.958 244.815 725.606 246.198 723.024 247.121C720.534 248.135 718.044 248.642 715.554 248.642ZM785.393 248.642C780.321 248.642 775.848 247.305 771.975 244.631C768.101 241.957 765.104 238.175 762.983 233.287C760.862 228.307 759.801 222.59 759.801 216.134C759.801 205.805 762.107 196.537 766.718 188.329C771.421 180.121 777.877 173.712 786.085 169.101C794.385 164.49 803.746 162.184 814.167 162.184C818.224 162.184 822.144 162.553 825.925 163.291C827.032 165.596 827.585 168.778 827.585 172.836C819.101 172.836 811.446 174.634 804.622 178.231C797.889 181.735 792.632 186.531 788.852 192.617C785.071 198.612 783.18 205.298 783.18 212.676C783.18 217.84 784.241 221.852 786.361 224.711C788.575 227.57 791.618 228.999 795.492 228.999C802.962 228.999 809.002 224.434 813.613 215.304C818.317 206.082 821.729 191.926 823.85 172.836C825.787 170.438 827.954 168.64 830.352 167.441C832.842 166.242 835.516 165.642 838.375 165.642C841.234 165.642 843.447 166.426 845.015 167.994C846.675 169.562 847.505 171.821 847.505 174.772C847.505 176.709 847.182 179.337 846.537 182.657C845.891 185.885 845.015 189.805 843.908 194.416C841.972 202.623 840.496 209.632 839.482 215.442C838.467 221.252 837.96 226.924 837.96 232.457C837.96 237.437 839.159 240.941 841.557 242.971C837.037 246.751 832.196 248.642 827.032 248.642C822.974 248.642 819.838 247.443 817.625 245.046C815.412 242.648 814.305 239.236 814.305 234.809C814.305 233.056 814.536 230.936 814.997 228.446L813.613 227.754C810.662 234.394 806.697 239.558 801.717 243.247C796.829 246.844 791.387 248.642 785.393 248.642Z" fill="white"/>
</g>
<mask id="mask6_20102_5771" style="mask-type:luminance" maskUnits="userSpaceOnUse" x="856" y="210" width="39" height="38">
<path d="M856.714 210.839H894.862V247.697H856.714V210.839Z" fill="white"/>
</mask>
<g mask="url(#mask6_20102_5771)">
<path d="M893.59 230.749C893.59 231.855 893.484 232.961 893.264 234.054C893.049 235.146 892.723 236.198 892.292 237.236C891.871 238.26 891.341 239.243 890.73 240.158C890.109 241.087 889.403 241.947 888.617 242.726C887.834 243.518 886.964 244.214 886.043 244.842C885.125 245.457 884.134 245.976 883.103 246.399C882.075 246.836 881.019 247.15 879.922 247.369C878.836 247.587 877.728 247.696 876.616 247.696C875.505 247.696 874.393 247.587 873.296 247.369C872.214 247.15 871.143 246.836 870.111 246.399C869.084 245.976 868.108 245.457 867.186 244.842C866.25 244.214 865.398 243.518 864.612 242.726C863.826 241.947 863.12 241.087 862.499 240.158C861.877 239.243 861.361 238.26 860.926 237.236C860.506 236.198 860.18 235.146 859.965 234.054C859.749 232.961 859.639 231.855 859.639 230.749C859.639 229.629 859.749 228.537 859.965 227.444C860.18 226.352 860.506 225.287 860.926 224.262C861.361 223.238 861.877 222.255 862.499 221.326C863.12 220.412 863.826 219.551 864.612 218.759C865.398 217.981 866.25 217.27 867.186 216.656C868.108 216.041 869.084 215.523 870.111 215.086C871.143 214.662 872.214 214.348 873.296 214.129C874.393 213.911 875.505 213.802 876.616 213.802C877.728 213.802 878.836 213.911 879.922 214.129C881.019 214.348 882.075 214.662 883.103 215.086C884.134 215.523 885.125 216.041 886.043 216.656C886.964 217.27 887.834 217.981 888.617 218.759C889.403 219.551 890.109 220.412 890.73 221.326C891.341 222.255 891.871 223.238 892.292 224.262C892.723 225.287 893.049 226.352 893.264 227.444C893.484 228.537 893.59 229.629 893.59 230.749Z" fill="#FEFF86"/>
</g>
<defs>
<clipPath id="clip0_20102_5771">
<rect width="431.219" height="111.621" fill="white" transform="translate(416.908 137.379)"/>
</clipPath>
</defs>
</svg>
