<svg width="36" height="37" viewBox="0 0 36 37" fill="none" xmlns="http://www.w3.org/2000/svg">
<path fill-rule="evenodd" clip-rule="evenodd" d="M18 29.8505L7.77653 35.5019C7.41124 35.7038 6.97396 35.3957 7.04115 34.9838L9 22.9751L0.679539 14.4472C0.395333 14.156 0.559601 13.6653 0.9619 13.6038L12.4377 11.8505L17.5474 0.964306C17.7273 0.580904 18.2727 0.580905 18.4526 0.964307L23.5623 11.8505L35.0381 13.6038C35.4404 13.6653 35.6047 14.156 35.3205 14.4472L27 22.9751L28.9588 34.9838C29.026 35.3957 28.5888 35.7038 28.2235 35.5019L18 29.8505Z" stroke="#9B9B9B"/>
<mask id="mask0_20245_6660" style="mask-type:alpha" maskUnits="userSpaceOnUse" x="0" y="0" width="18" height="36">
<path d="M0 0H18V36H0V0Z" fill="white"/>
</mask>
<g mask="url(#mask0_20245_6660)">
<path fill-rule="evenodd" clip-rule="evenodd" d="M18 29.8505L7.77653 35.5019C7.41124 35.7038 6.97396 35.3957 7.04115 34.9838L9 22.9751L0.679539 14.4472C0.395333 14.156 0.559601 13.6653 0.9619 13.6038L12.4377 11.8505L17.5474 0.964306C17.7273 0.580904 18.2727 0.580905 18.4526 0.964307L23.5623 11.8505L35.0381 13.6038C35.4404 13.6653 35.6047 14.156 35.3205 14.4472L27 22.9751L28.9588 34.9838C29.026 35.3957 28.5888 35.7038 28.2235 35.5019L18 29.8505Z" fill="#FFBA49" stroke="#FFBA49"/>
</g>
</svg>
